<?xml version="1.0" encoding="UTF-8"?>
<svg xmlns="http://www.w3.org/2000/svg" xmlns:xlink="http://www.w3.org/1999/xlink" viewBox="0 0 60 60" width="60px" height="60px">
<g id="surface70753587">
<path style=" stroke:none;fill-rule:nonzero;fill:rgb(94.509804%,76.862746%,5.882353%);fill-opacity:1;" d="M 30 60 C 13.429688 60 0 46.570312 0 30 C 0 13.429688 13.429688 0 30 0 C 46.570312 0 60 13.429688 60 30 C 60 46.570312 46.570312 60 30 60 Z M 30 60 "/>
<path style=" stroke:none;fill-rule:nonzero;fill:rgb(0%,0%,0%);fill-opacity:1;" d="M 15.371094 20.246094 C 14.929688 20.242188 14.523438 20.472656 14.300781 20.851562 C 14.078125 21.230469 14.078125 21.699219 14.300781 22.082031 C 14.523438 22.460938 14.929688 22.691406 15.371094 22.683594 L 44.628906 22.683594 C 45.070312 22.691406 45.476562 22.460938 45.699219 22.082031 C 45.921875 21.699219 45.921875 21.230469 45.699219 20.851562 C 45.476562 20.472656 45.070312 20.242188 44.628906 20.246094 Z M 15.371094 28.78125 C 14.929688 28.773438 14.523438 29.003906 14.300781 29.386719 C 14.078125 29.765625 14.078125 30.234375 14.300781 30.613281 C 14.523438 30.996094 14.929688 31.226562 15.371094 31.21875 L 44.628906 31.21875 C 45.070312 31.226562 45.476562 30.996094 45.699219 30.613281 C 45.921875 30.234375 45.921875 29.765625 45.699219 29.386719 C 45.476562 29.003906 45.070312 28.773438 44.628906 28.78125 Z M 15.371094 37.316406 C 14.929688 37.308594 14.523438 37.539062 14.300781 37.917969 C 14.078125 38.300781 14.078125 38.769531 14.300781 39.148438 C 14.523438 39.527344 14.929688 39.757812 15.371094 39.753906 L 44.628906 39.753906 C 45.070312 39.757812 45.476562 39.527344 45.699219 39.148438 C 45.921875 38.769531 45.921875 38.300781 45.699219 37.917969 C 45.476562 37.539062 45.070312 37.308594 44.628906 37.316406 Z M 15.371094 37.316406 "/>
</g>
</svg>
